# xmcd CD database file
#
# Track frame offsets:
#	150
#	20465
#	27624
#	56865
#	106534
#	130698
#	139154
#	162407
#	189749
#	213735
#
# Disc length: 3506 seconds
#
# Revision: 0
# Processed by: cddbd v1.5.1PL2 Copyright (c) Steve Scherf et al.
# Submitted via: CDex 1.51
#
DISCID=910db00a
DTITLE=Orchestra Reve - Caliente
DYEAR=2003
DGENRE=Salsa
TTITLE0=El Guararey De Pastora
TTITLE1=Improvisation (Feat.Chucho Valdez)
TTITLE2=El Martes - El Changüi (Feat. Juan Formell)
TTITLE3=Matansa
TTITLE4=Mas Joven Que Mañana (Feat. Juan Carlos Alfonso)
TTITLE5=Changüi Campanero (Feat. Juan Carlos Alfonso)
TTITLE6=El Chu Chu Chu (Feat. Yumuri)
TTITLE7=Papa Eleggua (Feat. Pichi)
TTITLE8=Un Buen Changüi
TTITLE9=Si Tu Quieres Saber La Verdad (Feat. Roberto Hdez. Lele and Christian Alonso)
EXTD=YEAR: 2003
EXTT0=
EXTT1=
EXTT2=
EXTT3=
EXTT4=
EXTT5=
EXTT6=
EXTT7=
EXTT8=
EXTT9=
PLAYORDER=
